<?xml version="1.0" encoding="utf-8"?>
<!-- Generator: Adobe Illustrator 16.0.0, SVG Export Plug-In . SVG Version: 6.00 Build 0)  -->
<!DOCTYPE svg PUBLIC "-//W3C//DTD SVG 1.1//EN" "http://www.w3.org/Graphics/SVG/1.1/DTD/svg11.dtd">
<svg version="1.1"
	 id="svg3720" xmlns:dc="http://purl.org/dc/elements/1.1/" xmlns:cc="http://creativecommons.org/ns#" xmlns:rdf="http://www.w3.org/1999/02/22-rdf-syntax-ns#" xmlns:svg="http://www.w3.org/2000/svg" xmlns:sodipodi="http://sodipodi.sourceforge.net/DTD/sodipodi-0.dtd" xmlns:inkscape="http://www.inkscape.org/namespaces/inkscape" sodipodi:docname="delete.svg" inkscape:version="0.48.4 r9939"
	 xmlns="http://www.w3.org/2000/svg" xmlns:xlink="http://www.w3.org/1999/xlink" x="0px" y="0px" width="19px" height="19px"
	 viewBox="0 0 19 19" enable-background="new 0 0 19 19" xml:space="preserve">
<path id="x-mark-4-icon" inkscape:connector-curvature="0" d="M19,9.5c0,5.25-4.25,9.5-9.5,9.5C4.25,19,0,14.75,0,9.5
	C0,4.25,4.25,0,9.5,0C14.75,0,19,4.25,19,9.5z M17.16,9.5c0-4.232-3.427-7.661-7.66-7.661c-4.232,0-7.661,3.429-7.661,7.661
	c0,4.233,3.429,7.66,7.661,7.66C13.733,17.16,17.16,13.733,17.16,9.5z M12.695,14.41l-3.109-3.106L6.48,14.41L4.82,12.75
	l3.109-3.105l-3.108-3.11l1.661-1.677l3.106,3.106l3.11-3.106l1.66,1.677l-3.088,3.11l3.088,3.105L12.695,14.41z"/>
</svg>
