<?xml version="1.0" encoding="utf-8"?>
<!-- Generator: Adobe Illustrator 16.0.0, SVG Export Plug-In . SVG Version: 6.00 Build 0)  -->
<!DOCTYPE svg PUBLIC "-//W3C//DTD SVG 1.1//EN" "http://www.w3.org/Graphics/SVG/1.1/DTD/svg11.dtd">
<svg version="1.1"
	 id="svg3903" xmlns:dc="http://purl.org/dc/elements/1.1/" xmlns:cc="http://creativecommons.org/ns#" xmlns:rdf="http://www.w3.org/1999/02/22-rdf-syntax-ns#" xmlns:svg="http://www.w3.org/2000/svg" xmlns:sodipodi="http://sodipodi.sourceforge.net/DTD/sodipodi-0.dtd" xmlns:inkscape="http://www.inkscape.org/namespaces/inkscape" sodipodi:docname="hidden.svg" inkscape:version="0.48.4 r9939"
	 xmlns="http://www.w3.org/2000/svg" xmlns:xlink="http://www.w3.org/1999/xlink" x="0px" y="0px" width="19px" height="19px"
	 viewBox="0 0 19 19" enable-background="new 0 0 19 19" xml:space="preserve">
<path id="circle-dashed-6-icon" inkscape:connector-curvature="0" d="M5.784,0.758c2.433-1.038,5.115-0.982,7.432,0l-1.164,2.016
	c-1.608-0.609-3.424-0.64-5.104,0L5.784,0.758z M16.601,10.652c-0.276,1.699-1.159,3.286-2.552,4.42l1.164,2.018
	c2.115-1.588,3.408-3.938,3.716-6.438H16.601L16.601,10.652z M16.602,8.347h2.329c-0.311-2.552-1.661-4.892-3.717-6.438
	l-1.165,2.017C15.406,5.033,16.322,6.617,16.602,8.347L16.602,8.347z M2.4,8.347c0.276-1.698,1.158-3.285,2.552-4.42L3.787,1.911
	C1.672,3.499,0.379,5.849,0.071,8.347H2.4z M12.052,16.226c-1.679,0.64-3.495,0.609-5.104,0l-1.164,2.017
	c2.317,0.982,4.999,1.038,7.433,0L12.052,16.226L12.052,16.226z M2.398,10.652H0.069c0.311,2.553,1.661,4.893,3.717,6.438
	l1.164-2.017C3.594,13.967,2.678,12.383,2.398,10.652z"/>
</svg>
