<?xml version="1.0" encoding="utf-8"?>
<!-- Generator: Adobe Illustrator 16.0.0, SVG Export Plug-In . SVG Version: 6.00 Build 0)  -->
<!DOCTYPE svg PUBLIC "-//W3C//DTD SVG 1.1//EN" "http://www.w3.org/Graphics/SVG/1.1/DTD/svg11.dtd">
<svg version="1.1"
	 id="svg3409" xmlns:dc="http://purl.org/dc/elements/1.1/" xmlns:cc="http://creativecommons.org/ns#" xmlns:rdf="http://www.w3.org/1999/02/22-rdf-syntax-ns#" xmlns:svg="http://www.w3.org/2000/svg" xmlns:sodipodi="http://sodipodi.sourceforge.net/DTD/sodipodi-0.dtd" xmlns:inkscape="http://www.inkscape.org/namespaces/inkscape" sodipodi:docname="move.svg" inkscape:version="0.48.4 r9939"
	 xmlns="http://www.w3.org/2000/svg" xmlns:xlink="http://www.w3.org/1999/xlink" x="0px" y="0px" width="19px" height="19px"
	 viewBox="0 0 19 19" enable-background="new 0 0 19 19" xml:space="preserve">
<path id="copy-2-icon" inkscape:connector-curvature="0" d="M0,0v3.181h1.824V1.824h1.399V0H0z M5.047,0v1.824h4.326V0H5.047z
	 M11.196,0v1.824h1.272v1.06h1.824V0H11.196z M4.708,4.708v6.489v1.272v1.824v1.102V19H19V4.708h-3.52h-1.188h-1.824h-1.188H4.708z
	 M0,5.004v4.326h1.824V5.004H0z M6.531,6.531h10.645v10.645H6.531V6.531z M0,11.154v3.139h3.266v-1.824H1.824v-1.314H0z"/>
</svg>
