<?xml version="1.0" encoding="utf-8"?>
<!-- Generator: Adobe Illustrator 16.0.0, SVG Export Plug-In . SVG Version: 6.00 Build 0)  -->
<!DOCTYPE svg PUBLIC "-//W3C//DTD SVG 1.1//EN" "http://www.w3.org/Graphics/SVG/1.1/DTD/svg11.dtd">
<svg version="1.1"
	 id="svg3867" xmlns:dc="http://purl.org/dc/elements/1.1/" xmlns:cc="http://creativecommons.org/ns#" xmlns:rdf="http://www.w3.org/1999/02/22-rdf-syntax-ns#" xmlns:svg="http://www.w3.org/2000/svg" xmlns:sodipodi="http://sodipodi.sourceforge.net/DTD/sodipodi-0.dtd" xmlns:inkscape="http://www.inkscape.org/namespaces/inkscape" sodipodi:docname="permissions.svg" inkscape:version="0.48.4 r9939"
	 xmlns="http://www.w3.org/2000/svg" xmlns:xlink="http://www.w3.org/1999/xlink" x="0px" y="0px" width="19px" height="19px"
	 viewBox="0 0 19 19" enable-background="new 0 0 19 19" xml:space="preserve">
<path id="key-3-icon" inkscape:connector-curvature="0" d="M8.818,14.794H6.795v2.023h-2.11v1.906H0v-3.249l6.721-6.721
	c0.185,0.439,0.413,0.859,0.681,1.252l-6.019,6.042v1.292h1.918v-1.906h2.109V13.41h2.834l1.321-1.345
	c0.418,0.256,0.867,0.472,1.342,0.639L8.818,14.794z M15.49,5.723c-0.535,0.535-1.402,0.535-1.938,0
	c-0.535-0.535-0.535-1.402,0-1.937c0.535-0.535,1.402-0.535,1.938,0C16.024,4.321,16.024,5.188,15.49,5.723z M13.275,0.276
	c-3.16,0-5.724,2.563-5.724,5.724c0,3.162,2.563,5.725,5.724,5.725C16.438,11.725,19,9.162,19,6C19,2.839,16.438,0.276,13.275,0.276
	z M13.275,10.341c-2.393,0-4.34-1.947-4.34-4.341c0-2.393,1.947-4.34,4.34-4.34c2.395,0,4.342,1.947,4.342,4.34
	C17.617,8.394,15.67,10.341,13.275,10.341z"/>
</svg>
