<?xml version="1.0" encoding="UTF-8" standalone="no"?>
<!-- Created with Inkscape (http://www.inkscape.org/) -->

<svg
   xmlns:dc="http://purl.org/dc/elements/1.1/"
   xmlns:cc="http://creativecommons.org/ns#"
   xmlns:rdf="http://www.w3.org/1999/02/22-rdf-syntax-ns#"
   xmlns:svg="http://www.w3.org/2000/svg"
   xmlns="http://www.w3.org/2000/svg"
   xmlns:sodipodi="http://sodipodi.sourceforge.net/DTD/sodipodi-0.dtd"
   xmlns:inkscape="http://www.inkscape.org/namespaces/inkscape"
   width="84"
   height="24"
   id="svg2"
   version="1.1"
   inkscape:version="0.48.4 r9939"
   sodipodi:docname="panel_mode_icons.svg"
   inkscape:export-filename="C:\Users\piotr\Desktop\filemanager gfx\icon_panel_target.png"
   inkscape:export-xdpi="90"
   inkscape:export-ydpi="90">
  <defs
     id="defs4" />
  <sodipodi:namedview
     id="base"
     pagecolor="#ffffff"
     bordercolor="#666666"
     borderopacity="1.0"
     inkscape:pageopacity="0.0"
     inkscape:pageshadow="2"
     inkscape:zoom="12.241786"
     inkscape:cx="47.99878"
     inkscape:cy="11.609829"
     inkscape:document-units="px"
     inkscape:current-layer="g4001"
     showgrid="true"
     inkscape:window-width="1920"
     inkscape:window-height="1018"
     inkscape:window-x="-8"
     inkscape:window-y="-8"
     inkscape:window-maximized="1"
     objecttolerance="1"
     gridtolerance="1"
     guidetolerance="1">
    <inkscape:grid
       type="xygrid"
       id="grid2985"
       empspacing="1"
       visible="true"
       enabled="true"
       snapvisiblegridlinesonly="true"
       dotted="false"
       spacingx="1px"
       spacingy="1px" />
  </sodipodi:namedview>
  <metadata
     id="metadata7">
    <rdf:RDF>
      <cc:Work
         rdf:about="">
        <dc:format>image/svg+xml</dc:format>
        <dc:type
           rdf:resource="http://purl.org/dc/dcmitype/StillImage" />
        <dc:title></dc:title>
      </cc:Work>
    </rdf:RDF>
  </metadata>
  <g
     inkscape:groupmode="layer"
     id="g4015"
     inkscape:label="symbol source"
     style="display:none"
     sodipodi:insensitive="true">
    <path
       style="fill:#505050;fill-opacity:1;stroke:none"
       d="M 20.9375,4 C 22.839324,6.1233996 24,8.9250735 24,12 c 0,3.074927 -1.160676,5.8766 -3.0625,8 L 47,20 l 4.875,0 21,0 c 4.418278,0 8,-3.581722 8,-8 0,-4.4182778 -3.581722,-8 -8,-8 l -21,0 L 47,4 20.9375,4 z"
       id="path4017"
       inkscape:connector-curvature="0" />
    <path
       transform="matrix(1.0553264,0,0,1.0201488,-0.93103436,-0.48357166)"
       d="m 21.728855,12.237011 a 9.4757414,9.8024912 0 1 1 -18.9514826,0 9.4757414,9.8024912 0 1 1 18.9514826,0 z"
       sodipodi:ry="9.8024912"
       sodipodi:rx="9.4757414"
       sodipodi:cy="12.237011"
       sodipodi:cx="12.253114"
       id="path4021"
       style="fill:#505050;fill-opacity:1;stroke:none;display:inline"
       sodipodi:type="arc" />
    <path
       sodipodi:type="arc"
       style="fill:#ffffff;fill-opacity:1;stroke:none;display:inline"
       id="path4023"
       sodipodi:cx="12.5"
       sodipodi:cy="12"
       sodipodi:rx="1.5"
       sodipodi:ry="2"
       d="m 14,12 a 1.5,2 0 1 1 -3,0 1.5,2 0 1 1 3,0 z"
       transform="matrix(1.3333333,0,0,1,-4.6666663,0)" />
    <text
       xml:space="preserve"
       style="font-size:12px;font-style:normal;font-variant:normal;font-weight:bold;font-stretch:normal;line-height:125%;letter-spacing:0px;word-spacing:0px;fill:#ffffff;fill-opacity:1;stroke:none;display:inline;font-family:Lucida Console;-inkscape-font-specification:Lucida Console Bold"
       x="29.700739"
       y="15.802551"
       id="text4009-1"
       sodipodi:linespacing="125%"><tspan
         sodipodi:role="line"
         id="tspan4011-7"
         x="29.700739"
         y="15.802551">SOURCE</tspan></text>
  </g>
  <g
     style="display:inline"
     inkscape:label="symbol target"
     id="g4001"
     inkscape:groupmode="layer"
     sodipodi:insensitive="true">
    <path
       style="fill:#505050;fill-opacity:1;stroke:none"
       d="M 20.9375,4 C 22.839324,6.1233996 24,8.9250735 24,12 c 0,3.074927 -1.160676,5.8766 -3.0625,8 L 47,20 l 4.875,0 21,0 c 4.418278,0 8,-3.581722 8,-8 0,-4.4182778 -3.581722,-8 -8,-8 l -21,0 L 47,4 20.9375,4 z"
       id="path4003"
       inkscape:connector-curvature="0" />
    <path
       sodipodi:type="arc"
       style="fill:#505050;fill-opacity:1;stroke:none;display:inline"
       id="path4007"
       sodipodi:cx="12.253114"
       sodipodi:cy="12.237011"
       sodipodi:rx="9.4757414"
       sodipodi:ry="9.8024912"
       d="m 21.728855,12.237011 a 9.4757414,9.8024912 0 1 1 -18.9514826,0 9.4757414,9.8024912 0 1 1 18.9514826,0 z"
       transform="matrix(1.0553264,0,0,1.0201488,-0.93103436,-0.48357166)" />
    <text
       xml:space="preserve"
       style="font-size:12px;font-style:normal;font-variant:normal;font-weight:bold;font-stretch:normal;line-height:125%;letter-spacing:0px;word-spacing:0px;fill:#ffffff;fill-opacity:1;stroke:none;display:inline;font-family:Lucida Console;-inkscape-font-specification:Lucida Console Bold"
       x="29.460445"
       y="15.802551"
       id="text4009"
       sodipodi:linespacing="125%"><tspan
         sodipodi:role="line"
         id="tspan4011"
         x="29.460445"
         y="15.802551">TARGET</tspan></text>
    <path
       inkscape:connector-curvature="0"
       id="path4013"
       d="m 11,5.0000002 0,3.15625 C 9.595856,8.5183566 8.518357,9.595856 8.15625,11 L 5,11 5,13 8.15625,13 C 8.518357,14.404145 9.595856,15.481644 11,15.84375 L 11,19 l 2,0 0,-3.15625 C 14.404145,15.481644 15.481644,14.404145 15.84375,13 L 19,13 19,11 15.84375,11 C 15.481644,9.595856 14.404145,8.5183566 13,8.1562502 l 0,-3.15625 -2,0 z M 12,10 c 1.104569,0 2,0.895431 2,2 0,1.104569 -0.895431,2 -2,2 -1.104569,0 -2.0000001,-0.895431 -2.0000001,-2 0,-1.104569 0.8954311,-2 2.0000001,-2 z"
       style="fill:#ffffff;fill-opacity:1;stroke:none;display:inline" />
  </g>
</svg>
